<svg xmlns="http://www.w3.org/2000/svg"
     viewBox="0 0 122.88 117.42">
    <path d="M66.71 3.55L81.1 37.26l36.58 3.28v-.01c1.55.13 2.91.89 3.85 2.01a5.663 5.663 0 011.32 4.13v.01a5.673 5.673 0 01-1.69 3.57c-.12.13-.25.25-.39.36L93.25 74.64l8.19 35.83c.35 1.53.05 3.06-.73 4.29a5.652 5.652 0 01-3.54 2.52l-.14.03c-.71.14-1.43.15-2.12.02v.01c-.75-.13-1.47-.42-2.11-.84l-.05-.03-31.3-18.71-31.55 18.86a5.664 5.664 0 01-7.79-1.96c-.38-.64-.62-1.33-.73-2.02-.1-.63-.09-1.27.02-1.89.02-.13.04-.27.08-.4l8.16-35.7c-9.24-8.07-18.74-16.1-27.83-24.3l-.08-.08a5.64 5.64 0 01-1.72-3.7c-.1-1.45.36-2.93 1.4-4.12l.12-.13.08-.08a5.668 5.668 0 013.77-1.72h.06l36.34-3.26 14.44-33.8c.61-1.44 1.76-2.5 3.11-3.05 1.35-.54 2.9-.57 4.34.04.69.29 1.3.71 1.8 1.22.53.53.94 1.15 1.22 1.82l.02.06zm10.19 37.2L61.85 5.51a.42.42 0 00"
          fill="#ffcf00"/>
</svg>